<svg id="Camada_1" data-name="Camada 1" xmlns="http://www.w3.org/2000/svg" viewBox="0 0 31.68 31.68"><defs><style>.cls-1{fill:#ff9f32;}</style></defs><path class="cls-1" d="M31.68,6.68c-.05.18-.09.36-.15.53a3.54,3.54,0,0,1-.91,1.49L9.46,29.85a1.49,1.49,0,0,1-.83.43c-2.49.45-5,.92-7.45,1.38A.94.94,0,0,1,0,30.5c.47-2.51.92-5,1.41-7.53a1.64,1.64,0,0,1,.47-.81L21.54,2.51c.29-.3.61-.59.89-.9A4.3,4.3,0,0,1,25.12,0h.62a4.23,4.23,0,0,1,2.67,1.57c.71.75,1.46,1.47,2.2,2.21a3.4,3.4,0,0,1,.92,1.47c.06.19.1.38.15.57ZM21.93,4.79,3.74,23l4.93,4.93L26.87,9.73Zm6.35,3.62,1-1a1.52,1.52,0,0,0,0-2.32L27.62,3.41,26.55,2.34a1.44,1.44,0,0,0-1.91-.23,18.66,18.66,0,0,0-1.38,1.28ZM2.08,29.6l4.62-.85L2.93,25Z"/></svg>